<svg width="35" height="35" viewBox="0 0 35 35" fill="none" xmlns="http://www.w3.org/2000/svg">
<g filter="url(#filter0_d_0_200)">
<path d="M28.12 12.5601C28.12 6.73742 23.3827 2.00012 17.56 2.00012C11.7373 2.00012 7 6.73742 7 12.5601C7 18.3828 11.7373 23.1201 17.56 23.1201H26.8V21.8001H22.661C25.9122 19.998 28.12 16.5332 28.12 12.5601Z" fill="white" stroke="#110E47" stroke-width="0.66"/>
<path fill-rule="evenodd" clip-rule="evenodd" d="M19.672 8.33612C19.672 9.50073 18.7246 10.4481 17.56 10.4481C16.3953 10.4481 15.448 9.50073 15.448 8.33612C15.448 7.17151 16.3954 6.22412 17.56 6.22412C18.7246 6.22412 19.672 7.17151 19.672 8.33612ZM18.264 8.33614C18.264 7.94771 17.9484 7.63214 17.56 7.63214C17.1715 7.63214 16.856 7.94771 16.856 8.33614C16.856 8.72456 17.1716 9.04015 17.56 9.04015C17.9484 9.04015 18.264 8.72456 18.264 8.33614Z" fill="#110E47"/>
<path fill-rule="evenodd" clip-rule="evenodd" d="M13.9891 8.86168C15.096 9.22194 15.7037 10.4161 15.3449 11.523C15.0547 12.4147 14.2242 12.9825 13.334 12.9825C13.1181 12.9825 12.8994 12.9495 12.6836 12.8794C11.576 12.5191 10.9683 11.3257 11.3271 10.2181C11.6874 9.11056 12.8823 8.50281 13.9885 8.86168H13.9891ZM13.3367 10.1666C13.0397 10.1666 12.7626 10.3556 12.6664 10.6533C12.5468 11.0218 12.7495 11.4205 13.1187 11.5402C13.4845 11.6598 13.886 11.4577 14.0056 11.0878C14.1252 10.7193 13.9224 10.3212 13.5539 10.2009C13.4818 10.1776 13.4089 10.1666 13.3367 10.1666Z" fill="#110E47"/>
<path fill-rule="evenodd" clip-rule="evenodd" d="M13.3177 14.6965C14.0026 13.7559 15.3262 13.5455 16.2682 14.2289C17.2095 14.9138 17.4192 16.2374 16.7358 17.1795C16.4037 17.6367 15.9141 17.9365 15.3565 18.0245C15.2451 18.0424 15.133 18.0513 15.0216 18.0513C14.5795 18.0513 14.1497 17.9124 13.7846 17.647C13.3281 17.3156 13.0283 16.826 12.9403 16.2684C12.8516 15.7114 12.9856 15.1531 13.3177 14.6965ZM15.1364 16.6342C15.3221 16.6046 15.4857 16.5042 15.5964 16.3523C15.824 16.038 15.7546 15.5966 15.4404 15.3683C15.3159 15.2783 15.1708 15.2343 15.0271 15.2343C14.8091 15.2343 14.5946 15.3353 14.4564 15.5244C14.3464 15.6764 14.3017 15.8627 14.3306 16.0484C14.3601 16.234 14.4605 16.3976 14.6125 16.5084C14.7644 16.6184 14.9521 16.6596 15.1364 16.6342Z" fill="#110E47"/>
<path fill-rule="evenodd" clip-rule="evenodd" d="M18.3842 17.1796C17.7008 16.2377 17.9105 14.9142 18.8518 14.2301C19.7938 13.5454 21.1188 13.755 21.8023 14.6969C22.1344 15.1534 22.2684 15.7117 22.1797 16.2686C22.0917 16.8262 21.7919 17.3157 21.3354 17.6471C20.9709 17.9125 20.5405 18.0513 20.0984 18.0513C19.987 18.0513 19.8749 18.0424 19.7635 18.0245C19.2059 17.9365 18.7163 17.6368 18.3849 17.1802L18.3842 17.1796ZM19.9836 16.6344C20.1692 16.6612 20.3549 16.6193 20.5075 16.5086C20.6595 16.3978 20.7598 16.2342 20.7894 16.0486C20.8183 15.8629 20.7736 15.6766 20.6636 15.5247C20.4353 15.2105 19.9918 15.1404 19.6797 15.3693C19.3661 15.5969 19.296 16.0383 19.5236 16.3525C19.6343 16.5044 19.7979 16.6048 19.9836 16.6344Z" fill="#110E47"/>
<path fill-rule="evenodd" clip-rule="evenodd" d="M19.7751 11.5237C19.4163 10.4161 20.024 9.22196 21.1309 8.86168C22.2378 8.50281 23.4326 9.11057 23.7929 10.2174C24.1517 11.3257 23.544 12.5192 22.4371 12.8794H22.4365C22.2206 12.9496 22.0019 12.9825 21.7861 12.9825C20.8958 12.9825 20.0653 12.4147 19.7751 11.5237ZM21.1144 11.0884C21.234 11.4576 21.6314 11.6604 22.0019 11.5401C22.3704 11.4198 22.5732 11.0218 22.4536 10.6526C22.3574 10.3556 22.0803 10.1665 21.7833 10.1665C21.7111 10.1665 21.6382 10.1775 21.5661 10.2009C21.1975 10.3212 20.9947 10.7193 21.1144 11.0884Z" fill="#110E47"/>
<path d="M18.456 11.664C18.9509 12.1589 18.9509 12.9613 18.456 13.4561C17.9612 13.951 17.1588 13.951 16.6639 13.4561C16.1691 12.9613 16.1691 12.1589 16.6639 11.664C17.1588 11.1692 17.9612 11.1692 18.456 11.664Z" fill="#110E47"/>
</g>
<defs>
<filter id="filter0_d_0_200" x="0.669983" y="0.670105" width="33.78" height="33.78" filterUnits="userSpaceOnUse" color-interpolation-filters="sRGB">
<feFlood flood-opacity="0" result="BackgroundImageFix"/>
<feColorMatrix in="SourceAlpha" type="matrix" values="0 0 0 0 0 0 0 0 0 0 0 0 0 0 0 0 0 0 127 0" result="hardAlpha"/>
<feOffset dy="5"/>
<feGaussianBlur stdDeviation="3"/>
<feColorMatrix type="matrix" values="0 0 0 0 0.461471 0 0 0 0 0.461471 0 0 0 0 0.741678 0 0 0 0.2 0"/>
<feBlend mode="normal" in2="BackgroundImageFix" result="effect1_dropShadow_0_200"/>
<feBlend mode="normal" in="SourceGraphic" in2="effect1_dropShadow_0_200" result="shape"/>
</filter>
</defs>
</svg>
